HIERARCHY
ROOT Hips
{
	OFFSET 0.00000 0.00000 0.00000
	CHANNELS 6 Xposition Yposition Zposition Zrotation Yrotation Xrotation 
	JOINT LHipJoint
	{
		OFFSET 0 0 0
		CHANNELS 3 Zrotation Yrotation Xrotation
		JOINT LeftUpLeg
		{
			OFFSET 1.85742 -1.74412 1.01653
			CHANNELS 3 Zrotation Yrotation Xrotation
			JOINT LeftLeg
			{
				OFFSET 2.54803 -7.00067 0.00000
				CHANNELS 3 Zrotation Yrotation Xrotation
				JOINT LeftFoot
				{
					OFFSET 2.51202 -6.90173 0.00000
					CHANNELS 3 Zrotation Yrotation Xrotation
					JOINT LeftToeBase
					{
						OFFSET 0.17547 -0.48209 1.64281
						CHANNELS 3 Zrotation Yrotation Xrotation
						End Site
						{
							OFFSET 0.00000 -0.00000 0.86587
						}
					}
				}
			}
		}
	}
	JOINT RHipJoint
	{
		OFFSET 0 0 0
		CHANNELS 3 Zrotation Yrotation Xrotation
		JOINT RightUpLeg
		{
			OFFSET -1.95533 -1.74413 1.01654
			CHANNELS 3 Zrotation Yrotation Xrotation
			JOINT RightLeg
			{
				OFFSET -2.49465 -6.85400 0.00000
				CHANNELS 3 Zrotation Yrotation Xrotation
				JOINT RightFoot
				{
					OFFSET -2.54783 -7.00010 0.00000
					CHANNELS 3 Zrotation Yrotation Xrotation
					JOINT RightToeBase
					{
						OFFSET -0.18513 -0.50864 1.69288
						CHANNELS 3 Zrotation Yrotation Xrotation
						End Site
						{
							OFFSET -0.00000 -0.00000 0.89242
						}
					}
				}
			}
		}
	}
	JOINT LowerBack
	{
		OFFSET 0 0 0
		CHANNELS 3 Zrotation Yrotation Xrotation
		JOINT Spine
		{
			OFFSET 0.02173 2.16290 -0.15998
			CHANNELS 3 Zrotation Yrotation Xrotation
			JOINT Spine1
			{
				OFFSET 0.00940 2.17323 -0.00467
				CHANNELS 3 Zrotation Yrotation Xrotation
				JOINT Neck
				{
					OFFSET 0 0 0
					CHANNELS 3 Zrotation Yrotation Xrotation
					JOINT Neck1
					{
						OFFSET 0.01475 1.85823 0.31113
						CHANNELS 3 Zrotation Yrotation Xrotation
						JOINT Head
						{
							OFFSET 0.01902 1.88783 -0.37187
							CHANNELS 3 Zrotation Yrotation Xrotation
							End Site
							{
								OFFSET 0.00489 1.93211 -0.16169
							}
						}
					}
				}
				JOINT LeftShoulder
				{
					OFFSET 0 0 0
					CHANNELS 3 Zrotation Yrotation Xrotation
					JOINT LeftArm
					{
						OFFSET 3.34199 1.32384 -0.07862
						CHANNELS 3 Zrotation Yrotation Xrotation
						JOINT LeftForeArm
						{
							OFFSET 5.27950 -0.00000 0.00000
							CHANNELS 3 Zrotation Yrotation Xrotation
							JOINT LeftHand
							{
								OFFSET 3.53504 -0.00000 0.00000
								CHANNELS 3 Zrotation Yrotation Xrotation
								JOINT LeftFingerBase
								{
									OFFSET 0 0 0
									CHANNELS 3 Zrotation Yrotation Xrotation
									JOINT LeftHandIndex1
									{
										OFFSET 0.66795 -0.00000 0.00000
										CHANNELS 3 Zrotation Yrotation Xrotation
										End Site
										{
											OFFSET 0.53852 -0.00000 0.00000
										}
									}
								}
								JOINT LThumb
								{
									OFFSET 0 0 0
									CHANNELS 3 Zrotation Yrotation Xrotation
									End Site
									{
										OFFSET 0.54674 -0.00000 0.54674
									}
								}
							}
						}
					}
				}
				JOINT RightShoulder
				{
					OFFSET 0 0 0
					CHANNELS 3 Zrotation Yrotation Xrotation
					JOINT RightArm
					{
						OFFSET -3.16149 1.45719 -0.50507
						CHANNELS 3 Zrotation Yrotation Xrotation
						JOINT RightForeArm
						{
							OFFSET -5.25035 -0.00000 0.00000
							CHANNELS 3 Zrotation Yrotation Xrotation
							JOINT RightHand
							{
								OFFSET -3.58884 -0.00000 0.00000
								CHANNELS 3 Zrotation Yrotation Xrotation
								JOINT RightFingerBase
								{
									OFFSET 0 0 0
									CHANNELS 3 Zrotation Yrotation Xrotation
									JOINT RightHandIndex1
									{
										OFFSET -0.77924 -0.00000 0.00000
										CHANNELS 3 Zrotation Yrotation Xrotation
										End Site
										{
											OFFSET -0.62824 -0.00000 0.00000
										}
									}
								}
								JOINT RThumb
								{
									OFFSET 0 0 0
									CHANNELS 3 Zrotation Yrotation Xrotation
									End Site
									{
										OFFSET -0.63783 -0.00000 0.63783
									}
								}
							}
						}
					}
				}
			}
		}
	}
}
MOTION
Frames: 5
Frame Time: .0083333
-8.8865 17.6895 -5.4547 -511.5630 71.5896 -497.3300 0.0000 0.0000 0.0000 -1.9349 -17.4100 -29.3832 3.0557 10.7847 31.5570 0.6080 -3.9671 -13.9169 2.8212 -10.3998 -30.2815 0.0000 0.0000 0.0000 22.9272 -5.3324 -10.5260 0.0000 -0.0000 0.0000 0.1599 -7.6124 -5.7930 -1.0200 6.4252 -18.0233 -5.5271 1.8940 13.1660 -8.9606 2.3812 5.6124 -6.7157 1.5287 -1.2346 -0.3700 -3.9052 -20.5222 6.7680 -7.0708 34.1471 1.6857 -1.6785 15.8807 0.0000 0.0000 0.0000 -94.2051 -37.1163 97.3052 18.7022 -29.0470 -4.8854 -0.0000 -0.0000 9.6703 42.9816 47.9504 34.6835 -7.1250 0.0000 -0.0000 6.8516 86.5365 6.4262 0.0000 0.0000 0.0000 46.7789 30.1949 78.4073 -65.8268 57.6726 -39.2289 0.0000 -0.0000 -36.7192 -16.4364 -9.8650 2.8934 7.1250 -0.0000 -0.0000 9.2542 -40.0881 1.1317
-8.8799 17.6925 -5.4526 -511.3980 71.5465 -497.1890 0.0000 0.0000 0.0000 -1.8662 -17.3476 -29.3067 3.0400 10.7596 31.4733 0.6081 -4.0157 -13.9141 2.7725 -10.3173 -30.0105 0.0000 0.0000 0.0000 23.0096 -5.3436 -10.4729 0.0000 0.0000 -0.0000 0.1569 -7.5794 -5.8627 -0.9661 6.2581 -17.5351 -5.5712 1.8827 13.1629 -8.9551 2.3605 5.6067 -6.6815 1.5173 -1.2424 -0.2652 -3.8725 -20.4880 6.6215 -7.0044 34.2454 1.6208 -1.6542 15.9034 0.0000 0.0000 0.0000 -94.1384 -37.0384 97.0289 18.6775 -29.0160 -4.8734 -0.0000 -0.0000 9.6370 43.1068 47.6759 34.6845 -7.1250 0.0000 -0.0000 8.8615 86.3180 8.2767 0.0000 0.0000 0.0000 46.7677 30.2745 78.3661 -65.4255 57.5904 -38.8900 0.0000 -0.0000 -39.6281 -16.2365 -9.7682 2.8286 7.1250 -0.0000 -0.0000 9.4088 -39.9725 1.1780
-8.8720 17.6987 -5.4504 -511.1630 71.5818 -497.0020 0.0000 0.0000 0.0000 -1.8463 -17.2720 -29.1701 3.0222 10.7308 31.3774 0.6098 -3.9321 -13.9402 2.8385 -10.4290 -30.3774 0.0000 0.0000 0.0000 23.0559 -5.2972 -10.3648 0.0000 -0.0000 0.0000 0.1536 -7.5486 -5.9521 -0.8794 5.9782 -16.7211 -5.6587 1.8987 13.1495 -8.9494 2.3722 5.6025 -6.6265 1.5216 -1.2417 -0.2521 -3.8604 -20.4623 6.5992 -6.9808 34.2883 1.6153 -1.6441 15.9151 -0.0000 0.0000 0.0000 -94.0511 -36.9459 96.7655 18.6686 -29.0048 -4.8691 -0.0000 -0.0000 9.4811 43.4255 47.4405 34.8829 -7.1250 0.0000 -0.0000 11.8482 86.2025 11.0437 -0.0000 0.0000 0.0000 46.6285 30.3497 78.4828 -65.2240 57.5485 -38.7200 0.0000 -0.0000 -41.4727 -16.3699 -9.8646 2.8810 7.1250 -0.0000 -0.0000 9.3117 -40.0823 1.1402
-8.8657 17.7030 -5.4498 -511.0790 71.6802 -496.9200 0.0000 0.0000 0.0000 -1.9023 -17.2281 -29.0796 3.0075 10.7072 31.2987 0.6109 -3.7782 -13.9647 2.9517 -10.6165 -30.9970 0.0000 0.0000 0.0000 23.0192 -5.2187 -10.3049 0.0000 0.0000 -0.0000 0.1543 -7.5677 -5.9669 -0.8562 5.9010 -16.4975 -5.7946 1.9317 13.0911 -8.9675 2.4070 5.5943 -6.5710 1.5378 -1.2193 -0.2285 -3.8401 -20.3937 6.6068 -6.9565 34.2614 1.6192 -1.6319 15.8838 -0.0000 0.0000 0.0000 -94.0151 -36.8793 96.5775 18.6491 -28.9803 -4.8597 -0.0000 -0.0000 9.3087 43.6672 47.2703 35.0366 -7.1250 0.0000 -0.0000 13.9836 86.1181 13.0153 -0.0000 0.0000 0.0000 46.4235 30.3776 78.5918 -65.0481 57.5116 -38.5716 0.0000 -0.0000 -42.1277 -16.3581 -9.8692 2.8801 7.1250 -0.0000 -0.0000 9.3226 -40.0860 1.1407
-8.8617 17.7035 -5.4494 -510.9120 71.7260 -496.7410 0.0000 0.0000 0.0000 -1.8810 -17.2013 -29.0488 2.9981 10.6919 31.2478 0.6106 -3.6765 -13.9693 3.0152 -10.7196 -31.3401 0.0000 0.0000 0.0000 23.0404 -5.1432 -10.2941 0.0000 -0.0000 0.0000 0.1573 -7.6178 -5.9563 -0.8760 5.9671 -16.6889 -5.8562 1.9596 13.0248 -8.9665 2.4407 5.5766 -6.5363 1.5527 -1.2020 -0.2464 -3.7966 -20.3048 6.6990 -6.9083 34.2385 1.6723 -1.6018 15.8556 0.0000 -0.0000 0.0000 -94.0080 -36.8228 96.4703 18.6374 -28.9656 -4.8540 -0.0000 -0.0000 9.2222 43.6427 47.1601 34.9656 -7.1250 0.0000 -0.0000 14.0640 86.0004 13.0598 0.0000 -0.0000 0.0000 46.1551 30.3991 78.7230 -64.9508 57.4910 -38.4895 0.0000 -0.0000 -42.2062 -16.3174 -9.7074 2.8260 7.1250 -0.0000 -0.0000 9.3277 -39.9169 1.1806
